<mxfile host="Electron" agent="Mozilla/5.0 (Windows NT 10.0; Win64; x64) AppleWebKit/537.36 (KHTML, like Gecko) draw.io/24.7.17 Chrome/128.0.6613.36 Electron/32.0.1 Safari/537.36" version="24.7.17">
  <diagram name="Page-1" id="WfeEqXm3AiryWU250CXL">
    <mxGraphModel dx="4435" dy="3190" grid="1" gridSize="10" guides="1" tooltips="1" connect="1" arrows="1" fold="1" page="1" pageScale="1" pageWidth="850" pageHeight="1100" math="0" shadow="0">
      <root>
        <mxCell id="0" />
        <mxCell id="1" parent="0" />
        <mxCell id="5Bb7WlTaSMSs6JGdZW2B-2" style="edgeStyle=orthogonalEdgeStyle;rounded=0;orthogonalLoop=1;jettySize=auto;html=1;entryX=0.5;entryY=0;entryDx=0;entryDy=0;" edge="1" parent="1" source="0thAzxqcYuXaU6FJJAwK-1" target="0thAzxqcYuXaU6FJJAwK-3">
          <mxGeometry relative="1" as="geometry" />
        </mxCell>
        <mxCell id="0thAzxqcYuXaU6FJJAwK-1" value="start" style="strokeWidth=2;html=1;shape=mxgraph.flowchart.start_1;whiteSpace=wrap;" vertex="1" parent="1">
          <mxGeometry x="100" y="-1070" width="100" height="60" as="geometry" />
        </mxCell>
        <mxCell id="5Bb7WlTaSMSs6JGdZW2B-3" style="edgeStyle=orthogonalEdgeStyle;rounded=0;orthogonalLoop=1;jettySize=auto;html=1;entryX=0.55;entryY=0;entryDx=0;entryDy=0;entryPerimeter=0;" edge="1" parent="1" source="0thAzxqcYuXaU6FJJAwK-3" target="0thAzxqcYuXaU6FJJAwK-6">
          <mxGeometry relative="1" as="geometry">
            <mxPoint x="150" y="-830" as="targetPoint" />
          </mxGeometry>
        </mxCell>
        <mxCell id="0thAzxqcYuXaU6FJJAwK-3" value="LOGIN&lt;div&gt;Masukkan PIN&amp;nbsp; :&lt;/div&gt;" style="shape=parallelogram;html=1;strokeWidth=2;perimeter=parallelogramPerimeter;whiteSpace=wrap;rounded=1;arcSize=12;size=0.23;" vertex="1" parent="1">
          <mxGeometry x="68.5" y="-960" width="163" height="60" as="geometry" />
        </mxCell>
        <mxCell id="0thAzxqcYuXaU6FJJAwK-4" value="" style="endArrow=classic;html=1;rounded=0;" edge="1" parent="1">
          <mxGeometry width="50" height="50" relative="1" as="geometry">
            <mxPoint x="181.5" y="-910" as="sourcePoint" />
            <mxPoint x="231.5" y="-910" as="targetPoint" />
          </mxGeometry>
        </mxCell>
        <mxCell id="0thAzxqcYuXaU6FJJAwK-6" value="Masukkan PIN :" style="shape=parallelogram;html=1;strokeWidth=2;perimeter=parallelogramPerimeter;whiteSpace=wrap;rounded=1;arcSize=12;size=0.23;" vertex="1" parent="1">
          <mxGeometry x="68.5" y="-820" width="150" height="60" as="geometry" />
        </mxCell>
        <mxCell id="0thAzxqcYuXaU6FJJAwK-8" value="" style="endArrow=classic;html=1;rounded=0;" edge="1" parent="1">
          <mxGeometry width="50" height="50" relative="1" as="geometry">
            <mxPoint x="60" y="-810" as="sourcePoint" />
            <mxPoint x="110" y="-810" as="targetPoint" />
          </mxGeometry>
        </mxCell>
        <mxCell id="5Bb7WlTaSMSs6JGdZW2B-5" style="edgeStyle=orthogonalEdgeStyle;rounded=0;orthogonalLoop=1;jettySize=auto;html=1;exitX=1;exitY=0.5;exitDx=0;exitDy=0;exitPerimeter=0;" edge="1" parent="1" source="0thAzxqcYuXaU6FJJAwK-11">
          <mxGeometry relative="1" as="geometry">
            <mxPoint x="370" y="-645" as="targetPoint" />
          </mxGeometry>
        </mxCell>
        <mxCell id="5Bb7WlTaSMSs6JGdZW2B-106" value="" style="edgeStyle=orthogonalEdgeStyle;rounded=0;orthogonalLoop=1;jettySize=auto;html=1;" edge="1" parent="1" source="0thAzxqcYuXaU6FJJAwK-11" target="5Bb7WlTaSMSs6JGdZW2B-105">
          <mxGeometry relative="1" as="geometry" />
        </mxCell>
        <mxCell id="0thAzxqcYuXaU6FJJAwK-11" value="PIN BENAR ?" style="strokeWidth=2;html=1;shape=mxgraph.flowchart.decision;whiteSpace=wrap;" vertex="1" parent="1">
          <mxGeometry x="93.5" y="-695" width="100" height="100" as="geometry" />
        </mxCell>
        <mxCell id="5Bb7WlTaSMSs6JGdZW2B-85" value="" style="edgeStyle=orthogonalEdgeStyle;rounded=0;orthogonalLoop=1;jettySize=auto;html=1;" edge="1" parent="1" source="0thAzxqcYuXaU6FJJAwK-19" target="5Bb7WlTaSMSs6JGdZW2B-84">
          <mxGeometry relative="1" as="geometry" />
        </mxCell>
        <mxCell id="5Bb7WlTaSMSs6JGdZW2B-86" style="edgeStyle=orthogonalEdgeStyle;rounded=0;orthogonalLoop=1;jettySize=auto;html=1;" edge="1" parent="1" source="0thAzxqcYuXaU6FJJAwK-19" target="5Bb7WlTaSMSs6JGdZW2B-87">
          <mxGeometry relative="1" as="geometry">
            <mxPoint x="690" y="-510" as="targetPoint" />
          </mxGeometry>
        </mxCell>
        <mxCell id="0thAzxqcYuXaU6FJJAwK-19" value="Kesempatan &amp;gt; 0" style="strokeWidth=2;html=1;shape=mxgraph.flowchart.decision;whiteSpace=wrap;" vertex="1" parent="1">
          <mxGeometry x="427.5" y="-560" width="105" height="100" as="geometry" />
        </mxCell>
        <mxCell id="5Bb7WlTaSMSs6JGdZW2B-108" value="" style="edgeStyle=orthogonalEdgeStyle;rounded=0;orthogonalLoop=1;jettySize=auto;html=1;" edge="1" parent="1" source="0thAzxqcYuXaU6FJJAwK-35" target="0thAzxqcYuXaU6FJJAwK-41">
          <mxGeometry relative="1" as="geometry" />
        </mxCell>
        <mxCell id="0thAzxqcYuXaU6FJJAwK-35" value="&quot;MENU ATM&lt;div&gt;1.&amp;nbsp; Setor Tunai&lt;/div&gt;&lt;div&gt;2. Cek Saldo&lt;/div&gt;&lt;div&gt;3. Tarik Tunai&lt;/div&gt;&lt;div&gt;4. Keluar&quot;&lt;/div&gt;" style="shape=parallelogram;html=1;strokeWidth=2;perimeter=parallelogramPerimeter;whiteSpace=wrap;rounded=1;arcSize=12;size=0.23;" vertex="1" parent="1">
          <mxGeometry x="37.75" y="-370" width="211.5" height="80" as="geometry" />
        </mxCell>
        <mxCell id="0thAzxqcYuXaU6FJJAwK-41" value="Pilih Menu :" style="shape=parallelogram;html=1;strokeWidth=2;perimeter=parallelogramPerimeter;whiteSpace=wrap;rounded=1;arcSize=12;size=0.23;" vertex="1" parent="1">
          <mxGeometry x="43.5" y="-250" width="200" height="70" as="geometry" />
        </mxCell>
        <mxCell id="5Bb7WlTaSMSs6JGdZW2B-32" value="" style="edgeStyle=orthogonalEdgeStyle;rounded=0;orthogonalLoop=1;jettySize=auto;html=1;" edge="1" parent="1" source="0thAzxqcYuXaU6FJJAwK-47" target="0thAzxqcYuXaU6FJJAwK-50">
          <mxGeometry relative="1" as="geometry" />
        </mxCell>
        <mxCell id="0thAzxqcYuXaU6FJJAwK-47" value="Menu 1" style="strokeWidth=2;html=1;shape=mxgraph.flowchart.decision;whiteSpace=wrap;" vertex="1" parent="1">
          <mxGeometry x="93.5" y="-105" width="100" height="100" as="geometry" />
        </mxCell>
        <mxCell id="5Bb7WlTaSMSs6JGdZW2B-48" value="" style="edgeStyle=orthogonalEdgeStyle;rounded=0;orthogonalLoop=1;jettySize=auto;html=1;" edge="1" parent="1" source="0thAzxqcYuXaU6FJJAwK-50" target="5Bb7WlTaSMSs6JGdZW2B-44">
          <mxGeometry relative="1" as="geometry" />
        </mxCell>
        <mxCell id="0thAzxqcYuXaU6FJJAwK-50" value="&quot;Masukkan Jumlah Saldo&amp;nbsp;&lt;div&gt;Yang&lt;div&gt;&amp;nbsp;ingin disetor&amp;nbsp; :&amp;nbsp; &quot;&lt;/div&gt;&lt;/div&gt;" style="shape=parallelogram;html=1;strokeWidth=2;perimeter=parallelogramPerimeter;whiteSpace=wrap;rounded=1;arcSize=12;size=0.23;" vertex="1" parent="1">
          <mxGeometry x="21.75" y="20" width="240" height="95" as="geometry" />
        </mxCell>
        <mxCell id="5Bb7WlTaSMSs6JGdZW2B-36" style="edgeStyle=orthogonalEdgeStyle;rounded=0;orthogonalLoop=1;jettySize=auto;html=1;exitX=0;exitY=0.5;exitDx=0;exitDy=0;" edge="1" parent="1" source="0thAzxqcYuXaU6FJJAwK-52" target="0thAzxqcYuXaU6FJJAwK-41">
          <mxGeometry relative="1" as="geometry">
            <Array as="points">
              <mxPoint x="-50" y="310" />
              <mxPoint x="-50" y="-215" />
            </Array>
          </mxGeometry>
        </mxCell>
        <mxCell id="0thAzxqcYuXaU6FJJAwK-52" value="&amp;nbsp;&quot;&amp;nbsp; Anda telah menyetor : Rp &quot;" style="shape=parallelogram;html=1;strokeWidth=2;perimeter=parallelogramPerimeter;whiteSpace=wrap;rounded=1;arcSize=12;size=0.23;" vertex="1" parent="1">
          <mxGeometry x="37.75" y="270" width="210" height="80" as="geometry" />
        </mxCell>
        <mxCell id="5Bb7WlTaSMSs6JGdZW2B-38" style="edgeStyle=orthogonalEdgeStyle;rounded=0;orthogonalLoop=1;jettySize=auto;html=1;entryX=0.5;entryY=0;entryDx=0;entryDy=0;" edge="1" parent="1" source="0thAzxqcYuXaU6FJJAwK-55" target="0thAzxqcYuXaU6FJJAwK-59">
          <mxGeometry relative="1" as="geometry" />
        </mxCell>
        <mxCell id="5Bb7WlTaSMSs6JGdZW2B-41" style="edgeStyle=orthogonalEdgeStyle;rounded=0;orthogonalLoop=1;jettySize=auto;html=1;" edge="1" parent="1" source="0thAzxqcYuXaU6FJJAwK-55">
          <mxGeometry relative="1" as="geometry">
            <mxPoint x="660" y="-55" as="targetPoint" />
          </mxGeometry>
        </mxCell>
        <mxCell id="0thAzxqcYuXaU6FJJAwK-55" value="Menu 2" style="strokeWidth=2;html=1;shape=mxgraph.flowchart.decision;whiteSpace=wrap;" vertex="1" parent="1">
          <mxGeometry x="390" y="-105" width="100" height="100" as="geometry" />
        </mxCell>
        <mxCell id="5Bb7WlTaSMSs6JGdZW2B-37" style="edgeStyle=orthogonalEdgeStyle;rounded=0;orthogonalLoop=1;jettySize=auto;html=1;" edge="1" parent="1" source="0thAzxqcYuXaU6FJJAwK-59">
          <mxGeometry relative="1" as="geometry">
            <mxPoint x="300" y="-220" as="targetPoint" />
          </mxGeometry>
        </mxCell>
        <mxCell id="0thAzxqcYuXaU6FJJAwK-59" value="&amp;nbsp;&quot; Saldo Anda&amp;nbsp; : Rp &quot;" style="shape=parallelogram;html=1;strokeWidth=2;perimeter=parallelogramPerimeter;whiteSpace=wrap;rounded=1;arcSize=12;size=0.23;" vertex="1" parent="1">
          <mxGeometry x="350" y="20" width="180" height="70" as="geometry" />
        </mxCell>
        <mxCell id="5Bb7WlTaSMSs6JGdZW2B-56" value="" style="edgeStyle=orthogonalEdgeStyle;rounded=0;orthogonalLoop=1;jettySize=auto;html=1;" edge="1" parent="1" source="0thAzxqcYuXaU6FJJAwK-61" target="5Bb7WlTaSMSs6JGdZW2B-54">
          <mxGeometry relative="1" as="geometry" />
        </mxCell>
        <mxCell id="5Bb7WlTaSMSs6JGdZW2B-80" style="edgeStyle=orthogonalEdgeStyle;rounded=0;orthogonalLoop=1;jettySize=auto;html=1;exitX=1;exitY=0.5;exitDx=0;exitDy=0;exitPerimeter=0;" edge="1" parent="1" source="0thAzxqcYuXaU6FJJAwK-61">
          <mxGeometry relative="1" as="geometry">
            <mxPoint x="1242" y="-55" as="targetPoint" />
          </mxGeometry>
        </mxCell>
        <mxCell id="0thAzxqcYuXaU6FJJAwK-61" value="Menu 3" style="strokeWidth=2;html=1;shape=mxgraph.flowchart.decision;whiteSpace=wrap;" vertex="1" parent="1">
          <mxGeometry x="660" y="-105" width="100" height="100" as="geometry" />
        </mxCell>
        <mxCell id="5Bb7WlTaSMSs6JGdZW2B-1" value="" style="edgeStyle=orthogonalEdgeStyle;rounded=0;orthogonalLoop=1;jettySize=auto;html=1;" edge="1" parent="1" source="0thAzxqcYuXaU6FJJAwK-11" target="0thAzxqcYuXaU6FJJAwK-15">
          <mxGeometry relative="1" as="geometry">
            <mxPoint x="570" y="-660" as="targetPoint" />
            <mxPoint x="194" y="-645" as="sourcePoint" />
          </mxGeometry>
        </mxCell>
        <mxCell id="0thAzxqcYuXaU6FJJAwK-15" value="&quot;&quot;MAAF PIN ANDA SALAH&quot;" style="shape=parallelogram;html=1;strokeWidth=2;perimeter=parallelogramPerimeter;whiteSpace=wrap;rounded=1;arcSize=12;size=0.23;" vertex="1" parent="1">
          <mxGeometry x="370" y="-680" width="220" height="70" as="geometry" />
        </mxCell>
        <mxCell id="5Bb7WlTaSMSs6JGdZW2B-4" style="edgeStyle=orthogonalEdgeStyle;rounded=0;orthogonalLoop=1;jettySize=auto;html=1;exitX=0.5;exitY=1;exitDx=0;exitDy=0;entryX=0.5;entryY=0;entryDx=0;entryDy=0;entryPerimeter=0;" edge="1" parent="1" source="0thAzxqcYuXaU6FJJAwK-6" target="0thAzxqcYuXaU6FJJAwK-11">
          <mxGeometry relative="1" as="geometry" />
        </mxCell>
        <mxCell id="5Bb7WlTaSMSs6JGdZW2B-7" value="" style="endArrow=classic;html=1;rounded=0;exitX=0.75;exitY=1;exitDx=0;exitDy=0;" edge="1" parent="1">
          <mxGeometry width="50" height="50" relative="1" as="geometry">
            <mxPoint x="535" y="-620" as="sourcePoint" />
            <mxPoint x="600" y="-620" as="targetPoint" />
          </mxGeometry>
        </mxCell>
        <mxCell id="5Bb7WlTaSMSs6JGdZW2B-8" style="edgeStyle=orthogonalEdgeStyle;rounded=0;orthogonalLoop=1;jettySize=auto;html=1;exitX=0.5;exitY=1;exitDx=0;exitDy=0;entryX=0.5;entryY=0;entryDx=0;entryDy=0;entryPerimeter=0;" edge="1" parent="1" source="0thAzxqcYuXaU6FJJAwK-15" target="0thAzxqcYuXaU6FJJAwK-19">
          <mxGeometry relative="1" as="geometry" />
        </mxCell>
        <mxCell id="5Bb7WlTaSMSs6JGdZW2B-18" value="F" style="text;html=1;align=center;verticalAlign=middle;resizable=0;points=[];autosize=1;strokeColor=none;fillColor=none;" vertex="1" parent="1">
          <mxGeometry x="193.5" y="-680" width="30" height="30" as="geometry" />
        </mxCell>
        <mxCell id="5Bb7WlTaSMSs6JGdZW2B-19" value="T" style="text;html=1;align=center;verticalAlign=middle;resizable=0;points=[];autosize=1;strokeColor=none;fillColor=none;" vertex="1" parent="1">
          <mxGeometry x="98.5" y="-590" width="30" height="30" as="geometry" />
        </mxCell>
        <mxCell id="5Bb7WlTaSMSs6JGdZW2B-26" style="edgeStyle=orthogonalEdgeStyle;rounded=0;orthogonalLoop=1;jettySize=auto;html=1;exitX=0.5;exitY=1;exitDx=0;exitDy=0;entryX=0.5;entryY=0;entryDx=0;entryDy=0;entryPerimeter=0;" edge="1" parent="1" source="0thAzxqcYuXaU6FJJAwK-41" target="0thAzxqcYuXaU6FJJAwK-47">
          <mxGeometry relative="1" as="geometry" />
        </mxCell>
        <mxCell id="5Bb7WlTaSMSs6JGdZW2B-40" style="edgeStyle=orthogonalEdgeStyle;rounded=0;orthogonalLoop=1;jettySize=auto;html=1;entryX=0;entryY=0.5;entryDx=0;entryDy=0;entryPerimeter=0;" edge="1" parent="1" source="0thAzxqcYuXaU6FJJAwK-47" target="0thAzxqcYuXaU6FJJAwK-55">
          <mxGeometry relative="1" as="geometry" />
        </mxCell>
        <mxCell id="5Bb7WlTaSMSs6JGdZW2B-42" value="F" style="text;html=1;align=center;verticalAlign=middle;resizable=0;points=[];autosize=1;strokeColor=none;fillColor=none;" vertex="1" parent="1">
          <mxGeometry x="195" y="-82" width="30" height="30" as="geometry" />
        </mxCell>
        <mxCell id="5Bb7WlTaSMSs6JGdZW2B-43" value="T" style="text;html=1;align=center;verticalAlign=middle;resizable=0;points=[];autosize=1;strokeColor=none;fillColor=none;" vertex="1" parent="1">
          <mxGeometry x="110" y="-5" width="30" height="30" as="geometry" />
        </mxCell>
        <mxCell id="5Bb7WlTaSMSs6JGdZW2B-49" value="" style="edgeStyle=orthogonalEdgeStyle;rounded=0;orthogonalLoop=1;jettySize=auto;html=1;" edge="1" parent="1" source="5Bb7WlTaSMSs6JGdZW2B-44" target="0thAzxqcYuXaU6FJJAwK-52">
          <mxGeometry relative="1" as="geometry" />
        </mxCell>
        <mxCell id="5Bb7WlTaSMSs6JGdZW2B-44" value="Jumlah saldo yang disetor&amp;nbsp; + Tabungan" style="rounded=1;whiteSpace=wrap;html=1;absoluteArcSize=1;arcSize=14;strokeWidth=2;" vertex="1" parent="1">
          <mxGeometry x="52.129999999999995" y="147.5" width="179.25" height="80" as="geometry" />
        </mxCell>
        <mxCell id="5Bb7WlTaSMSs6JGdZW2B-58" value="" style="edgeStyle=orthogonalEdgeStyle;rounded=0;orthogonalLoop=1;jettySize=auto;html=1;" edge="1" parent="1" source="5Bb7WlTaSMSs6JGdZW2B-54" target="5Bb7WlTaSMSs6JGdZW2B-57">
          <mxGeometry relative="1" as="geometry" />
        </mxCell>
        <mxCell id="5Bb7WlTaSMSs6JGdZW2B-54" value="&amp;nbsp;&quot; masukkan jum;ah saldo&amp;nbsp;&lt;div&gt;ingin ditarik : Rp &quot;&lt;/div&gt;" style="shape=parallelogram;html=1;strokeWidth=2;perimeter=parallelogramPerimeter;whiteSpace=wrap;rounded=1;arcSize=12;size=0.23;" vertex="1" parent="1">
          <mxGeometry x="580" y="20" width="260" height="80" as="geometry" />
        </mxCell>
        <mxCell id="5Bb7WlTaSMSs6JGdZW2B-67" value="" style="edgeStyle=orthogonalEdgeStyle;rounded=0;orthogonalLoop=1;jettySize=auto;html=1;" edge="1" parent="1" source="5Bb7WlTaSMSs6JGdZW2B-57">
          <mxGeometry relative="1" as="geometry">
            <mxPoint x="710" y="370" as="targetPoint" />
          </mxGeometry>
        </mxCell>
        <mxCell id="5Bb7WlTaSMSs6JGdZW2B-69" value="" style="edgeStyle=orthogonalEdgeStyle;rounded=0;orthogonalLoop=1;jettySize=auto;html=1;" edge="1" parent="1" source="5Bb7WlTaSMSs6JGdZW2B-57" target="5Bb7WlTaSMSs6JGdZW2B-68">
          <mxGeometry relative="1" as="geometry" />
        </mxCell>
        <mxCell id="5Bb7WlTaSMSs6JGdZW2B-57" value="Jumlah saldo yang ingin ditarik &amp;gt; Tabungan" style="strokeWidth=2;html=1;shape=mxgraph.flowchart.decision;whiteSpace=wrap;" vertex="1" parent="1">
          <mxGeometry x="600" y="147.5" width="220" height="180" as="geometry" />
        </mxCell>
        <mxCell id="5Bb7WlTaSMSs6JGdZW2B-70" style="edgeStyle=orthogonalEdgeStyle;rounded=0;orthogonalLoop=1;jettySize=auto;html=1;exitX=0;exitY=0.5;exitDx=0;exitDy=0;" edge="1" parent="1">
          <mxGeometry relative="1" as="geometry">
            <mxPoint x="556" y="-220" as="targetPoint" />
            <mxPoint x="636.8499999999995" y="415" as="sourcePoint" />
          </mxGeometry>
        </mxCell>
        <mxCell id="5Bb7WlTaSMSs6JGdZW2B-59" value="&quot; Saldo tidak cukup &quot;" style="shape=parallelogram;html=1;strokeWidth=2;perimeter=parallelogramPerimeter;whiteSpace=wrap;rounded=1;arcSize=12;size=0.23;" vertex="1" parent="1">
          <mxGeometry x="615" y="370" width="190" height="90" as="geometry" />
        </mxCell>
        <mxCell id="5Bb7WlTaSMSs6JGdZW2B-65" value="F" style="text;html=1;align=center;verticalAlign=middle;resizable=0;points=[];autosize=1;strokeColor=none;fillColor=none;" vertex="1" parent="1">
          <mxGeometry x="485" y="-92" width="30" height="30" as="geometry" />
        </mxCell>
        <mxCell id="5Bb7WlTaSMSs6JGdZW2B-66" value="T" style="text;html=1;align=center;verticalAlign=middle;resizable=0;points=[];autosize=1;strokeColor=none;fillColor=none;" vertex="1" parent="1">
          <mxGeometry x="410" y="-10" width="30" height="30" as="geometry" />
        </mxCell>
        <mxCell id="5Bb7WlTaSMSs6JGdZW2B-72" value="" style="edgeStyle=orthogonalEdgeStyle;rounded=0;orthogonalLoop=1;jettySize=auto;html=1;" edge="1" parent="1" source="5Bb7WlTaSMSs6JGdZW2B-68" target="5Bb7WlTaSMSs6JGdZW2B-71">
          <mxGeometry relative="1" as="geometry" />
        </mxCell>
        <mxCell id="5Bb7WlTaSMSs6JGdZW2B-68" value="Jumlah saldo yang ingin ditarik - Tabungan" style="rounded=1;whiteSpace=wrap;html=1;absoluteArcSize=1;arcSize=14;strokeWidth=2;" vertex="1" parent="1">
          <mxGeometry x="910" y="186.25" width="210" height="102.5" as="geometry" />
        </mxCell>
        <mxCell id="5Bb7WlTaSMSs6JGdZW2B-79" style="edgeStyle=orthogonalEdgeStyle;rounded=0;orthogonalLoop=1;jettySize=auto;html=1;exitX=0;exitY=0.5;exitDx=0;exitDy=0;" edge="1" parent="1" source="5Bb7WlTaSMSs6JGdZW2B-71">
          <mxGeometry relative="1" as="geometry">
            <mxPoint x="844" y="-220" as="targetPoint" />
          </mxGeometry>
        </mxCell>
        <mxCell id="5Bb7WlTaSMSs6JGdZW2B-71" value="&quot;Anda telah menarik : Rp&lt;div&gt;Sisa saldo anda : Rp &quot;&lt;/div&gt;" style="shape=parallelogram;html=1;strokeWidth=2;perimeter=parallelogramPerimeter;whiteSpace=wrap;rounded=1;arcSize=12;size=0.23;" vertex="1" parent="1">
          <mxGeometry x="912.5" y="370" width="205" height="80" as="geometry" />
        </mxCell>
        <mxCell id="5Bb7WlTaSMSs6JGdZW2B-75" value="" style="endArrow=classic;html=1;rounded=0;" edge="1" parent="1">
          <mxGeometry width="50" height="50" relative="1" as="geometry">
            <mxPoint x="750" y="450" as="sourcePoint" />
            <mxPoint x="810" y="450" as="targetPoint" />
          </mxGeometry>
        </mxCell>
        <mxCell id="5Bb7WlTaSMSs6JGdZW2B-77" value="" style="endArrow=classic;html=1;rounded=0;" edge="1" parent="1">
          <mxGeometry width="50" height="50" relative="1" as="geometry">
            <mxPoint x="570" y="30" as="sourcePoint" />
            <mxPoint x="650" y="30" as="targetPoint" />
          </mxGeometry>
        </mxCell>
        <mxCell id="5Bb7WlTaSMSs6JGdZW2B-94" value="" style="edgeStyle=orthogonalEdgeStyle;rounded=0;orthogonalLoop=1;jettySize=auto;html=1;" edge="1" parent="1" source="5Bb7WlTaSMSs6JGdZW2B-81" target="5Bb7WlTaSMSs6JGdZW2B-93">
          <mxGeometry relative="1" as="geometry" />
        </mxCell>
        <mxCell id="5Bb7WlTaSMSs6JGdZW2B-96" style="edgeStyle=orthogonalEdgeStyle;rounded=0;orthogonalLoop=1;jettySize=auto;html=1;exitX=1;exitY=0.5;exitDx=0;exitDy=0;exitPerimeter=0;" edge="1" parent="1" source="5Bb7WlTaSMSs6JGdZW2B-81">
          <mxGeometry relative="1" as="geometry">
            <mxPoint x="1479.9999999999995" y="-54.82608695652152" as="targetPoint" />
          </mxGeometry>
        </mxCell>
        <mxCell id="5Bb7WlTaSMSs6JGdZW2B-81" value="Menu 4" style="strokeWidth=2;html=1;shape=mxgraph.flowchart.decision;whiteSpace=wrap;" vertex="1" parent="1">
          <mxGeometry x="1240" y="-105" width="100" height="100" as="geometry" />
        </mxCell>
        <mxCell id="5Bb7WlTaSMSs6JGdZW2B-89" style="edgeStyle=orthogonalEdgeStyle;rounded=0;orthogonalLoop=1;jettySize=auto;html=1;exitX=0;exitY=0.5;exitDx=0;exitDy=0;" edge="1" parent="1" source="5Bb7WlTaSMSs6JGdZW2B-84" target="0thAzxqcYuXaU6FJJAwK-6">
          <mxGeometry relative="1" as="geometry">
            <mxPoint x="300" y="-781.7391304347826" as="targetPoint" />
            <Array as="points">
              <mxPoint x="280" y="-370" />
              <mxPoint x="280" y="-780" />
            </Array>
          </mxGeometry>
        </mxCell>
        <mxCell id="5Bb7WlTaSMSs6JGdZW2B-84" value="&quot; anda masih memiliki ... kesempatan &quot;" style="shape=parallelogram;html=1;strokeWidth=2;perimeter=parallelogramPerimeter;whiteSpace=wrap;rounded=1;arcSize=12;size=0.23;" vertex="1" parent="1">
          <mxGeometry x="335" y="-420" width="290" height="100" as="geometry" />
        </mxCell>
        <mxCell id="5Bb7WlTaSMSs6JGdZW2B-87" value="&quot; Anda telah menggunakan&amp;nbsp;&lt;div&gt;Kesempatan sebanyak 3 kali &quot;&lt;/div&gt;" style="shape=parallelogram;html=1;strokeWidth=2;perimeter=parallelogramPerimeter;whiteSpace=wrap;rounded=1;arcSize=12;size=0.23;" vertex="1" parent="1">
          <mxGeometry x="642.5" y="-555" width="270" height="90" as="geometry" />
        </mxCell>
        <mxCell id="5Bb7WlTaSMSs6JGdZW2B-90" value="F" style="text;html=1;align=center;verticalAlign=middle;resizable=0;points=[];autosize=1;strokeColor=none;fillColor=none;" vertex="1" parent="1">
          <mxGeometry x="530" y="-540" width="30" height="30" as="geometry" />
        </mxCell>
        <mxCell id="5Bb7WlTaSMSs6JGdZW2B-91" value="T" style="text;html=1;align=center;verticalAlign=middle;resizable=0;points=[];autosize=1;strokeColor=none;fillColor=none;" vertex="1" parent="1">
          <mxGeometry x="440" y="-465" width="30" height="30" as="geometry" />
        </mxCell>
        <mxCell id="5Bb7WlTaSMSs6JGdZW2B-93" value="&quot; Terima kasih sudah menggunakan&lt;div&gt;ATM ini. Semoga harimu&lt;/div&gt;&lt;div&gt;Menyenangkan. &quot;&lt;/div&gt;" style="shape=parallelogram;html=1;strokeWidth=2;perimeter=parallelogramPerimeter;whiteSpace=wrap;rounded=1;arcSize=12;size=0.23;" vertex="1" parent="1">
          <mxGeometry x="1136.25" y="20" width="307.5" height="85" as="geometry" />
        </mxCell>
        <mxCell id="5Bb7WlTaSMSs6JGdZW2B-101" style="edgeStyle=orthogonalEdgeStyle;rounded=0;orthogonalLoop=1;jettySize=auto;html=1;entryX=1;entryY=0.5;entryDx=0;entryDy=0;" edge="1" parent="1" source="5Bb7WlTaSMSs6JGdZW2B-100" target="0thAzxqcYuXaU6FJJAwK-41">
          <mxGeometry relative="1" as="geometry">
            <mxPoint x="1779.9999999999995" y="-240" as="targetPoint" />
            <Array as="points">
              <mxPoint x="1600" y="-220" />
              <mxPoint x="223" y="-220" />
            </Array>
          </mxGeometry>
        </mxCell>
        <mxCell id="5Bb7WlTaSMSs6JGdZW2B-100" value="&quot; Pilihan tidak dtiemukan.&lt;div&gt;Harap masukkan menu dengan benar. &quot;&lt;/div&gt;" style="shape=parallelogram;html=1;strokeWidth=2;perimeter=parallelogramPerimeter;whiteSpace=wrap;rounded=1;arcSize=12;size=0.15789473684210525;" vertex="1" parent="1">
          <mxGeometry x="1460" y="-82" width="280" height="72" as="geometry" />
        </mxCell>
        <mxCell id="5Bb7WlTaSMSs6JGdZW2B-102" value="End" style="strokeWidth=2;html=1;shape=mxgraph.flowchart.start_1;whiteSpace=wrap;" vertex="1" parent="1">
          <mxGeometry x="1240" y="580" width="100" height="60" as="geometry" />
        </mxCell>
        <mxCell id="5Bb7WlTaSMSs6JGdZW2B-103" style="edgeStyle=orthogonalEdgeStyle;rounded=0;orthogonalLoop=1;jettySize=auto;html=1;exitX=0.5;exitY=1;exitDx=0;exitDy=0;entryX=0.5;entryY=0;entryDx=0;entryDy=0;entryPerimeter=0;" edge="1" parent="1" source="5Bb7WlTaSMSs6JGdZW2B-93" target="5Bb7WlTaSMSs6JGdZW2B-102">
          <mxGeometry relative="1" as="geometry" />
        </mxCell>
        <mxCell id="5Bb7WlTaSMSs6JGdZW2B-104" style="edgeStyle=orthogonalEdgeStyle;rounded=0;orthogonalLoop=1;jettySize=auto;html=1;entryX=1;entryY=0.5;entryDx=0;entryDy=0;entryPerimeter=0;" edge="1" parent="1" source="5Bb7WlTaSMSs6JGdZW2B-87" target="5Bb7WlTaSMSs6JGdZW2B-102">
          <mxGeometry relative="1" as="geometry">
            <Array as="points">
              <mxPoint x="1760" y="-510" />
              <mxPoint x="1760" y="610" />
            </Array>
          </mxGeometry>
        </mxCell>
        <mxCell id="5Bb7WlTaSMSs6JGdZW2B-107" value="" style="edgeStyle=orthogonalEdgeStyle;rounded=0;orthogonalLoop=1;jettySize=auto;html=1;" edge="1" parent="1" source="5Bb7WlTaSMSs6JGdZW2B-105" target="0thAzxqcYuXaU6FJJAwK-35">
          <mxGeometry relative="1" as="geometry" />
        </mxCell>
        <mxCell id="5Bb7WlTaSMSs6JGdZW2B-105" value="Selamat, anda Berhasil Login" style="shape=parallelogram;html=1;strokeWidth=2;perimeter=parallelogramPerimeter;whiteSpace=wrap;rounded=1;arcSize=12;size=0.23;" vertex="1" parent="1">
          <mxGeometry x="25.25" y="-560" width="236.5" height="85" as="geometry" />
        </mxCell>
      </root>
    </mxGraphModel>
  </diagram>
</mxfile>
